    <svg xmlns="http://www.w3.org/2000/svg" width="19" height="19" viewBox="0 0 19 19" fill="none">
    <path d="M18.3098 1.79004L14.4505 0.956755C14.0312 0.866482 13.6007 1.07133 13.43 1.43937L11.6488 5.32805C11.4929 5.66831 11.5968 6.0676 11.9048 6.30023L14.1536 8.02236C12.8177 10.6854 10.4836 12.9006 7.57797 14.1748L5.73738 12.0708C5.48504 11.7826 5.062 11.6854 4.69834 11.8312L0.542172 13.4978C0.14511 13.661 -0.0738307 14.0637 0.0226517 14.4561L0.913259 18.067C1.00603 18.442 1.36227 18.7128 1.7816 18.7128C11.2851 18.7128 19 11.5083 19 2.6025C19 2.21363 18.7143 1.87685 18.3098 1.79004Z" fill="#1D4354"/>
    </svg>