<svg xmlns="http://www.w3.org/2000/svg" width="15" height="17" viewBox="0 0 15 17" fill="none">
<path d="M15 11.8228C15 12.0586 14.7912 12.1596 14.5476 12.2607C13.5731 12.6649 12.529 13.0354 11.4153 13.0354C9.84919 13.0354 9.11833 12.0923 7.23898 12.0923C5.88167 12.0923 4.45476 12.5638 3.30626 13.0691C3.23666 13.1028 3.16705 13.1028 3.09745 13.1364V15.6964C3.09745 16.4004 2.54951 16.8416 1.94896 16.8416C1.2877 16.8416 0.765661 16.3363 0.765661 15.6964V3.36832C0.313225 3.03148 0 2.49255 0 1.88626C0 0.842079 0.87007 0 1.94896 0C3.02784 0 3.89791 0.842079 3.89791 1.88626C3.89791 2.49255 3.61949 3.03148 3.13225 3.36832V4.41249C3.27241 4.3673 5.1296 3.46937 7.03016 3.46937C9.2485 3.46937 10.3499 4.37881 11.3457 4.37881C12.6682 4.37881 14.1299 3.46937 14.478 3.46937C14.7564 3.46937 15 3.67146 15 3.90725V11.8228Z" fill="#DE2727"/>
</svg>