<svg xmlns="http://www.w3.org/2000/svg" width="15" height="16" viewBox="0 0 15 16" fill="none">
<path d="M11.4785 10C10.7598 10 10.1035 10.25 9.60352 10.6562L6.38477 8.65625C6.44727 8.46875 6.44727 8.25 6.44727 8C6.44727 7.78125 6.44727 7.5625 6.38477 7.375L9.60352 5.375C10.1035 5.78125 10.7598 6 11.4785 6C13.1348 6 14.4785 4.6875 14.4785 3C14.4785 1.34375 13.1348 0 11.4785 0C9.79102 0 8.47852 1.34375 8.47852 3C8.47852 3.25 8.47852 3.46875 8.54102 3.65625L5.32227 5.65625C4.82227 5.25 4.16602 5 3.47852 5C1.79102 5 0.478516 6.34375 0.478516 8C0.478516 9.6875 1.79102 11 3.47852 11C4.16602 11 4.82227 10.7812 5.32227 10.375L8.54102 12.375C8.47852 12.5625 8.47852 12.7812 8.47852 13.0312V13C8.47852 14.6875 9.79102 16 11.4785 16C13.1348 16 14.4785 14.6875 14.4785 13C14.4785 11.3438 13.1348 10 11.4785 10Z" fill="#21BE4D"/>
</svg>