<svg class="svg-3" xmlns="http://www.w3.org/2000/svg" width="26" height="18" viewBox="0 0 26 18" fill="none">
    <path d="M2.4375 0C1.95541 0 1.48414 0.115263 1.0833 0.331212C0.682454 0.547162 0.370033 0.854099 0.185545 1.21321C0.00105613 1.57232 -0.0472145 1.96748 0.046837 2.34871C0.140888 2.72994 0.373038 3.08012 0.713928 3.35497C1.05482 3.62982 1.48914 3.817 1.96197 3.89283C2.4348 3.96866 2.9249 3.92974 3.37029 3.781C3.81569 3.63225 4.19637 3.38035 4.46421 3.05716C4.73204 2.73397 4.875 2.354 4.875 1.9653C4.875 1.44407 4.61819 0.944187 4.16107 0.575622C3.70395 0.207058 3.08397 0 2.4375 0ZM2.4375 6.55099C1.95541 6.55099 1.48414 6.66625 1.0833 6.8822C0.682454 7.09815 0.370033 7.40509 0.185545 7.7642C0.00105613 8.12331 -0.0472145 8.51847 0.046837 8.8997C0.140888 9.28093 0.373038 9.63111 0.713928 9.90596C1.05482 10.1808 1.48914 10.368 1.96197 10.4438C2.4348 10.5197 2.9249 10.4807 3.37029 10.332C3.81569 10.1832 4.19637 9.93134 4.46421 9.60815C4.73204 9.28496 4.875 8.90499 4.875 8.51629C4.875 7.99506 4.61819 7.49518 4.16107 7.12661C3.70395 6.75805 3.08397 6.55099 2.4375 6.55099ZM2.4375 13.102C1.95541 13.102 1.48414 13.2172 1.0833 13.4332C0.682454 13.6491 0.370033 13.9561 0.185545 14.3152C0.00105613 14.6743 -0.0472145 15.0695 0.046837 15.4507C0.140888 15.8319 0.373038 16.1821 0.713928 16.457C1.05482 16.7318 1.48914 16.919 1.96197 16.9948C2.4348 17.0706 2.9249 17.0317 3.37029 16.883C3.81569 16.7342 4.19637 16.4823 4.46421 16.1591C4.73204 15.8359 4.875 15.456 4.875 15.0673C4.875 14.5461 4.61819 14.0462 4.16107 13.6776C3.70395 13.309 3.08397 13.102 2.4375 13.102ZM25.1875 13.7571H8.9375C8.72201 13.7571 8.51535 13.8261 8.36298 13.949C8.2106 14.0718 8.125 14.2384 8.125 14.4122V15.7224C8.125 15.8961 8.2106 16.0627 8.36298 16.1856C8.51535 16.3085 8.72201 16.3775 8.9375 16.3775H25.1875C25.403 16.3775 25.6097 16.3085 25.762 16.1856C25.9144 16.0627 26 15.8961 26 15.7224V14.4122C26 14.2384 25.9144 14.0718 25.762 13.949C25.6097 13.8261 25.403 13.7571 25.1875 13.7571ZM25.1875 0.655099H8.9375C8.72201 0.655099 8.51535 0.724118 8.36298 0.846973C8.2106 0.969828 8.125 1.13646 8.125 1.3102V2.6204C8.125 2.79414 8.2106 2.96077 8.36298 3.08362C8.51535 3.20648 8.72201 3.2755 8.9375 3.2755H25.1875C25.403 3.2755 25.6097 3.20648 25.762 3.08362C25.9144 2.96077 26 2.79414 26 2.6204V1.3102C26 1.13646 25.9144 0.969828 25.762 0.846973C25.6097 0.724118 25.403 0.655099 25.1875 0.655099ZM25.1875 7.20609H8.9375C8.72201 7.20609 8.51535 7.27511 8.36298 7.39796C8.2106 7.52082 8.125 7.68745 8.125 7.86119V9.17139C8.125 9.34513 8.2106 9.51176 8.36298 9.63461C8.51535 9.75747 8.72201 9.82649 8.9375 9.82649H25.1875C25.403 9.82649 25.6097 9.75747 25.762 9.63461C25.9144 9.51176 26 9.34513 26 9.17139V7.86119C26 7.68745 25.9144 7.52082 25.762 7.39796C25.6097 7.27511 25.403 7.20609 25.1875 7.20609Z" fill="white"/>
</svg>