<svg class="svg-2" xmlns="http://www.w3.org/2000/svg" width="29" height="22" viewBox="0 0 29 22" fill="none">
    <path d="M14.5 0C10.9963 0 8.15625 2.32338 8.15625 5.18961C8.15625 7.50682 12.3024 11.7302 13.8908 13.2632C14.2125 13.5737 14.788 13.5737 15.1092 13.2632C16.6977 11.7302 20.8438 7.50682 20.8438 5.18961C20.8438 2.32338 18.0037 0 14.5 0ZM14.5 6.91948C13.332 6.91948 12.3854 6.14516 12.3854 5.18961C12.3854 4.23407 13.332 3.45974 14.5 3.45974C15.6681 3.45974 16.6146 4.23407 16.6146 5.18961C16.6146 6.14516 15.6681 6.91948 14.5 6.91948ZM1.01299 8.89442C0.714014 8.99224 0.457722 9.1611 0.277166 9.37921C0.0966106 9.59732 7.16042e-05 9.85468 0 10.1181L0 20.4281C0 20.8944 0.575469 21.2132 1.10462 21.0402L8.05556 18.452V8.852C7.61049 8.19382 7.24648 7.55295 6.98568 6.94008L1.01299 8.89442ZM14.5 14.8139C13.7916 14.8139 13.1215 14.5593 12.6618 14.1153C11.672 13.1598 10.6192 12.0716 9.66667 10.9554V18.4515L19.3333 21.0875V10.9559C18.3808 12.0716 17.3285 13.1602 16.3382 14.1157C15.8785 14.5593 15.2084 14.8139 14.5 14.8139ZM27.8954 6.63776L20.9445 9.22598V21.088L27.987 18.7835C28.286 18.6857 28.5424 18.5169 28.7229 18.2988C28.9035 18.0807 29 17.8233 29 17.5598V7.24981C29 6.78357 28.4245 6.46478 27.8954 6.63776Z" fill="white"/>
</svg>