<svg class="svg-1" xmlns="http://www.w3.org/2000/svg" width="65" height="23" viewBox="0 0 65 23" fill="none">
    <rect width="65" height="23" rx="11.5" fill="white"/>
    <path d="M11.2813 5.46111C10.929 5.46111 10.5846 5.54224 10.2916 5.69424C9.99872 5.84625 9.77041 6.06229 9.63559 6.31507C9.50077 6.56784 9.4655 6.84598 9.53423 7.11432C9.60296 7.38266 9.77261 7.62915 10.0217 7.82261C10.2708 8.01607 10.5882 8.14782 10.9337 8.2012C11.2793 8.25457 11.6374 8.22718 11.9629 8.12248C12.2884 8.01778 12.5666 7.84047 12.7623 7.61298C12.958 7.3855 13.0625 7.11804 13.0625 6.84444C13.0625 6.47756 12.8748 6.12571 12.5408 5.86628C12.2067 5.60685 11.7537 5.46111 11.2813 5.46111ZM11.2813 10.0722C10.929 10.0722 10.5846 10.1534 10.2916 10.3054C9.99872 10.4574 9.77041 10.6734 9.63559 10.9262C9.50077 11.1789 9.4655 11.4571 9.53423 11.7254C9.60296 11.9938 9.77261 12.2403 10.0217 12.4337C10.2708 12.6272 10.5882 12.7589 10.9337 12.8123C11.2793 12.8657 11.6374 12.8383 11.9629 12.7336C12.2884 12.6289 12.5666 12.4516 12.7623 12.2241C12.958 11.9966 13.0625 11.7292 13.0625 11.4556C13.0625 11.0887 12.8748 10.7368 12.5408 10.4774C12.2067 10.218 11.7537 10.0722 11.2813 10.0722ZM11.2813 14.6833C10.929 14.6833 10.5846 14.7645 10.2916 14.9165C9.99872 15.0685 9.77041 15.2845 9.63559 15.5373C9.50077 15.7901 9.4655 16.0682 9.53423 16.3365C9.60296 16.6049 9.77261 16.8514 10.0217 17.0448C10.2708 17.2383 10.5882 17.37 10.9337 17.4234C11.2793 17.4768 11.6374 17.4494 11.9629 17.3447C12.2884 17.24 12.5666 17.0627 12.7623 16.8352C12.958 16.6077 13.0625 16.3403 13.0625 16.0667C13.0625 15.6998 12.8748 15.3479 12.5408 15.0885C12.2067 14.8291 11.7537 14.6833 11.2813 14.6833ZM27.9063 15.1444H16.0313C15.8738 15.1444 15.7228 15.193 15.6114 15.2795C15.5001 15.366 15.4375 15.4833 15.4375 15.6056V16.5278C15.4375 16.6501 15.5001 16.7674 15.6114 16.8538C15.7228 16.9403 15.8738 16.9889 16.0313 16.9889H27.9063C28.0637 16.9889 28.2147 16.9403 28.3261 16.8538C28.4374 16.7674 28.5 16.6501 28.5 16.5278V15.6056C28.5 15.4833 28.4374 15.366 28.3261 15.2795C28.2147 15.193 28.0637 15.1444 27.9063 15.1444ZM27.9063 5.92222H16.0313C15.8738 5.92222 15.7228 5.9708 15.6114 6.05728C15.5001 6.14375 15.4375 6.26104 15.4375 6.38333V7.30556C15.4375 7.42785 15.5001 7.54514 15.6114 7.63161C15.7228 7.71809 15.8738 7.76667 16.0313 7.76667H27.9063C28.0637 7.76667 28.2147 7.71809 28.3261 7.63161C28.4374 7.54514 28.5 7.42785 28.5 7.30556V6.38333C28.5 6.26104 28.4374 6.14375 28.3261 6.05728C28.2147 5.9708 28.0637 5.92222 27.9063 5.92222ZM27.9063 10.5333H16.0313C15.8738 10.5333 15.7228 10.5819 15.6114 10.6684C15.5001 10.7549 15.4375 10.8722 15.4375 10.9944V11.9167C15.4375 12.039 15.5001 12.1562 15.6114 12.2427C15.7228 12.3292 15.8738 12.3778 16.0313 12.3778H27.9063C28.0637 12.3778 28.2147 12.3292 28.3261 12.2427C28.4374 12.1562 28.5 12.039 28.5 11.9167V10.9944C28.5 10.8722 28.4374 10.7549 28.3261 10.6684C28.2147 10.5819 28.0637 10.5333 27.9063 10.5333Z" fill="#1D4354"/>
    <path d="M49 3C46.5837 3 44.625 4.72731 44.625 6.8582C44.625 8.58092 47.4844 11.7208 48.5799 12.8605C48.8017 13.0913 49.1986 13.0913 49.4201 12.8605C50.5156 11.7208 53.375 8.58092 53.375 6.8582C53.375 4.72731 51.4163 3 49 3ZM49 8.14427C48.1944 8.14427 47.5417 7.5686 47.5417 6.8582C47.5417 6.1478 48.1944 5.57213 49 5.57213C49.8056 5.57213 50.4583 6.1478 50.4583 6.8582C50.4583 7.5686 49.8056 8.14427 49 8.14427ZM39.6986 9.61253C39.4924 9.68525 39.3157 9.81079 39.1911 9.97294C39.0666 10.1351 39 10.3264 39 10.5223V18.1872C39 18.5338 39.3969 18.7709 39.7618 18.6422L44.5556 16.718V9.58099C44.2486 9.09167 43.9976 8.61521 43.8177 8.15958L39.6986 9.61253ZM49 14.0133C48.5115 14.0133 48.0493 13.8241 47.7323 13.494C47.0497 12.7836 46.3236 11.9746 45.6667 11.1448V16.7177L52.3333 18.6775V11.1451C51.6764 11.9746 50.9507 12.7839 50.2677 13.4943C49.9507 13.8241 49.4885 14.0133 49 14.0133ZM58.2382 7.93482L53.4444 9.85902V18.6778L58.3014 16.9645C58.5076 16.8918 58.6844 16.7663 58.8089 16.6042C58.9334 16.442 59 16.2506 59 16.0548V8.38984C59 8.04322 58.6031 7.80621 58.2382 7.93482Z" fill="#1D4354"/>
    <line x1="35.25" y1="1.09278e-08" x2="35.25" y2="23" stroke="black" stroke-width="0.5"/>
</svg>